<svg width="1200" height="720" viewBox="0 0 1200 720" fill="none" xmlns="http://www.w3.org/2000/svg">
  <defs>
    <linearGradient id="bg" x1="120" y1="60" x2="1080" y2="660" gradientUnits="userSpaceOnUse">
      <stop stop-color="#F8FBFF"/>
      <stop offset="1" stop-color="#EEF7F1"/>
    </linearGradient>
    <linearGradient id="arrow" x1="0" y1="0" x2="1" y2="0">
      <stop stop-color="#38BDF8"/>
      <stop offset="1" stop-color="#22C55E"/>
    </linearGradient>
  </defs>
  <rect x="20" y="20" width="1160" height="680" rx="36" fill="url(#bg)"/>
  <rect x="80" y="240" width="220" height="170" rx="28" fill="#E0F2FE" stroke="#7DD3FC" stroke-width="3"/>
  <rect x="350" y="240" width="220" height="170" rx="28" fill="#DCFCE7" stroke="#86EFAC" stroke-width="3"/>
  <rect x="620" y="240" width="220" height="170" rx="28" fill="#FEF3C7" stroke="#FCD34D" stroke-width="3"/>
  <rect x="890" y="240" width="220" height="170" rx="28" fill="#F3E8FF" stroke="#C084FC" stroke-width="3"/>
  <text x="190" y="300" text-anchor="middle" font-size="34" font-family="Arial, sans-serif" font-weight="700" fill="#0F172A">Planner</text>
  <text x="190" y="346" text-anchor="middle" font-size="24" font-family="Arial, sans-serif" fill="#334155">goal</text>
  <text x="190" y="378" text-anchor="middle" font-size="24" font-family="Arial, sans-serif" fill="#334155">beat</text>
  <text x="460" y="300" text-anchor="middle" font-size="34" font-family="Arial, sans-serif" font-weight="700" fill="#0F172A">Writer</text>
  <text x="460" y="346" text-anchor="middle" font-size="24" font-family="Arial, sans-serif" fill="#334155">draft scene</text>
  <text x="460" y="378" text-anchor="middle" font-size="24" font-family="Arial, sans-serif" fill="#334155">choices</text>
  <text x="730" y="300" text-anchor="middle" font-size="34" font-family="Arial, sans-serif" font-weight="700" fill="#0F172A">Critic</text>
  <text x="730" y="346" text-anchor="middle" font-size="24" font-family="Arial, sans-serif" fill="#334155">quality gate</text>
  <text x="730" y="378" text-anchor="middle" font-size="24" font-family="Arial, sans-serif" fill="#334155">consistency</text>
  <text x="1000" y="300" text-anchor="middle" font-size="34" font-family="Arial, sans-serif" font-weight="700" fill="#0F172A">Reviewer</text>
  <text x="1000" y="346" text-anchor="middle" font-size="24" font-family="Arial, sans-serif" fill="#334155">final scene</text>
  <text x="1000" y="378" text-anchor="middle" font-size="24" font-family="Arial, sans-serif" fill="#334155">delivery</text>
  <path d="M300 324H348" stroke="url(#arrow)" stroke-width="12" stroke-linecap="round"/>
  <path d="M570 324H618" stroke="url(#arrow)" stroke-width="12" stroke-linecap="round"/>
  <path d="M840 324H888" stroke="url(#arrow)" stroke-width="12" stroke-linecap="round"/>
  <path d="M334 324L318 311V337L334 324Z" fill="#38BDF8"/>
  <path d="M604 324L588 311V337L604 324Z" fill="#22C55E"/>
  <path d="M874 324L858 311V337L874 324Z" fill="#A855F7"/>
  <text x="600" y="128" text-anchor="middle" font-size="40" font-family="Arial, sans-serif" font-weight="700" fill="#0F172A">Multi-Agent Scene Pipeline</text>
  <text x="600" y="172" text-anchor="middle" font-size="24" font-family="Arial, sans-serif" fill="#475569">plan first, draft next, check before delivery</text>
</svg>
