<svg width="1200" height="720" viewBox="0 0 1200 720" fill="none" xmlns="http://www.w3.org/2000/svg">
  <defs>
    <linearGradient id="bg2" x1="100" y1="40" x2="1100" y2="680" gradientUnits="userSpaceOnUse">
      <stop stop-color="#F8FAFC"/>
      <stop offset="1" stop-color="#F0FDF4"/>
    </linearGradient>
  </defs>
  <rect x="20" y="20" width="1160" height="680" rx="36" fill="url(#bg2)"/>
  <circle cx="600" cy="360" r="118" fill="#DBEAFE" stroke="#60A5FA" stroke-width="4"/>
  <text x="600" y="350" text-anchor="middle" font-size="34" font-family="Arial, sans-serif" font-weight="700" fill="#0F172A">Stable</text>
  <text x="600" y="392" text-anchor="middle" font-size="34" font-family="Arial, sans-serif" font-weight="700" fill="#0F172A">Workflow</text>
  <rect x="152" y="120" width="220" height="92" rx="24" fill="#E0F2FE" stroke="#7DD3FC" stroke-width="3"/>
  <rect x="828" y="120" width="220" height="92" rx="24" fill="#DCFCE7" stroke="#86EFAC" stroke-width="3"/>
  <rect x="152" y="508" width="220" height="92" rx="24" fill="#FEF3C7" stroke="#FCD34D" stroke-width="3"/>
  <rect x="828" y="508" width="220" height="92" rx="24" fill="#F3E8FF" stroke="#D8B4FE" stroke-width="3"/>
  <text x="262" y="175" text-anchor="middle" font-size="28" font-family="Arial, sans-serif" font-weight="700" fill="#0F172A">Structured</text>
  <text x="262" y="210" text-anchor="middle" font-size="22" font-family="Arial, sans-serif" fill="#334155">output</text>
  <text x="938" y="175" text-anchor="middle" font-size="28" font-family="Arial, sans-serif" font-weight="700" fill="#0F172A">Stateful</text>
  <text x="938" y="210" text-anchor="middle" font-size="22" font-family="Arial, sans-serif" fill="#334155">workflow</text>
  <text x="262" y="563" text-anchor="middle" font-size="28" font-family="Arial, sans-serif" font-weight="700" fill="#0F172A">Trace</text>
  <text x="262" y="598" text-anchor="middle" font-size="22" font-family="Arial, sans-serif" fill="#334155">and progress</text>
  <text x="938" y="563" text-anchor="middle" font-size="28" font-family="Arial, sans-serif" font-weight="700" fill="#0F172A">Quality</text>
  <text x="938" y="598" text-anchor="middle" font-size="22" font-family="Arial, sans-serif" fill="#334155">gates</text>
  <path d="M372 166C460 202 500 250 536 302" stroke="#38BDF8" stroke-width="10" stroke-linecap="round"/>
  <path d="M828 166C740 202 700 250 664 302" stroke="#22C55E" stroke-width="10" stroke-linecap="round"/>
  <path d="M372 554C460 518 500 470 536 418" stroke="#F59E0B" stroke-width="10" stroke-linecap="round"/>
  <path d="M828 554C740 518 700 470 664 418" stroke="#A855F7" stroke-width="10" stroke-linecap="round"/>
</svg>
