<svg width="1200" height="720" viewBox="0 0 1200 720" fill="none" xmlns="http://www.w3.org/2000/svg">
  <defs>
    <linearGradient id="bg5" x1="90" y1="40" x2="1110" y2="680" gradientUnits="userSpaceOnUse">
      <stop stop-color="#F8FAFC"/>
      <stop offset="1" stop-color="#F0FDF4"/>
    </linearGradient>
  </defs>
  <rect x="20" y="20" width="1160" height="680" rx="36" fill="url(#bg5)"/>
  <circle cx="600" cy="360" r="210" fill="#FFFFFF" stroke="#CBD5E1" stroke-width="4"/>
  <circle cx="600" cy="360" r="92" fill="#DBEAFE" stroke="#60A5FA" stroke-width="4"/>
  <text x="600" y="350" text-anchor="middle" font-size="34" font-family="Arial, sans-serif" font-weight="700" fill="#0F172A">Game</text>
  <text x="600" y="390" text-anchor="middle" font-size="34" font-family="Arial, sans-serif" font-weight="700" fill="#0F172A">Loop</text>
  <rect x="494" y="74" width="212" height="92" rx="24" fill="#E0F2FE" stroke="#7DD3FC" stroke-width="3"/>
  <rect x="860" y="314" width="212" height="92" rx="24" fill="#DCFCE7" stroke="#86EFAC" stroke-width="3"/>
  <rect x="494" y="554" width="212" height="92" rx="24" fill="#FEF3C7" stroke="#FCD34D" stroke-width="3"/>
  <rect x="128" y="314" width="212" height="92" rx="24" fill="#F3E8FF" stroke="#D8B4FE" stroke-width="3"/>
  <text x="600" y="132" text-anchor="middle" font-size="30" font-family="Arial, sans-serif" font-weight="700" fill="#0F172A">Text</text>
  <text x="966" y="372" text-anchor="middle" font-size="30" font-family="Arial, sans-serif" font-weight="700" fill="#0F172A">Image</text>
  <text x="600" y="612" text-anchor="middle" font-size="30" font-family="Arial, sans-serif" font-weight="700" fill="#0F172A">Player</text>
  <text x="234" y="372" text-anchor="middle" font-size="30" font-family="Arial, sans-serif" font-weight="700" fill="#0F172A">UI</text>
  <path d="M706 120C812 146 894 224 928 314" stroke="#38BDF8" stroke-width="10" stroke-linecap="round"/>
  <path d="M928 406C900 494 818 572 706 600" stroke="#22C55E" stroke-width="10" stroke-linecap="round"/>
  <path d="M494 600C384 572 302 494 272 406" stroke="#F59E0B" stroke-width="10" stroke-linecap="round"/>
  <path d="M272 314C308 222 390 144 494 120" stroke="#A855F7" stroke-width="10" stroke-linecap="round"/>
</svg>
