<svg width="1200" height="760" viewBox="0 0 1200 760" fill="none" xmlns="http://www.w3.org/2000/svg">
  <defs>
    <linearGradient id="bg" x1="120" y1="80" x2="1060" y2="680" gradientUnits="userSpaceOnUse">
      <stop stop-color="#FFF7ED"/>
      <stop offset="1" stop-color="#F8FAFC"/>
    </linearGradient>
    <linearGradient id="cardA" x1="0" y1="0" x2="1" y2="1">
      <stop stop-color="#FED7AA"/>
      <stop offset="1" stop-color="#FDBA74"/>
    </linearGradient>
    <linearGradient id="cardB" x1="0" y1="0" x2="1" y2="1">
      <stop stop-color="#BFDBFE"/>
      <stop offset="1" stop-color="#93C5FD"/>
    </linearGradient>
    <linearGradient id="cardC" x1="0" y1="0" x2="1" y2="1">
      <stop stop-color="#C7D2FE"/>
      <stop offset="1" stop-color="#A5B4FC"/>
    </linearGradient>
    <filter id="shadow" x="-20%" y="-20%" width="140%" height="140%">
      <feDropShadow dx="0" dy="10" stdDeviation="14" flood-color="#0F172A" flood-opacity="0.12"/>
    </filter>
    <marker id="arrow" markerWidth="10" markerHeight="10" refX="8" refY="5" orient="auto">
      <path d="M0 0L10 5L0 10V0Z" fill="#475569"/>
    </marker>
  </defs>

  <rect x="20" y="20" width="1160" height="720" rx="32" fill="url(#bg)"/>
  <text x="74" y="88" fill="#0F172A" font-size="34" font-weight="700" font-family="Inter, Arial, sans-serif">Progressive Disclosure for Agent Context</text>
  <text x="74" y="124" fill="#475569" font-size="20" font-weight="500" font-family="Inter, Arial, sans-serif">Only inject the context needed for the current step</text>

  <rect x="72" y="176" width="250" height="470" rx="26" fill="#FFFFFF" stroke="#E2E8F0" filter="url(#shadow)"/>
  <text x="102" y="222" fill="#0F172A" font-size="26" font-weight="700" font-family="Inter, Arial, sans-serif">Full Memory Pool</text>
  <text x="102" y="252" fill="#64748B" font-size="16" font-family="Inter, Arial, sans-serif">All available context exists here</text>

  <rect x="102" y="286" width="188" height="58" rx="18" fill="url(#cardA)"/>
  <text x="122" y="322" fill="#7C2D12" font-size="19" font-weight="700" font-family="Inter, Arial, sans-serif">Current scene goal</text>

  <rect x="102" y="360" width="188" height="58" rx="18" fill="url(#cardB)"/>
  <text x="122" y="396" fill="#1E3A8A" font-size="19" font-weight="700" font-family="Inter, Arial, sans-serif">Recent dialogue</text>

  <rect x="102" y="434" width="188" height="58" rx="18" fill="url(#cardC)"/>
  <text x="122" y="470" fill="#3730A3" font-size="19" font-weight="700" font-family="Inter, Arial, sans-serif">Character state</text>

  <rect x="102" y="508" width="188" height="58" rx="18" fill="#E2E8F0"/>
  <text x="122" y="544" fill="#475569" font-size="18" font-weight="600" font-family="Inter, Arial, sans-serif">Old branch details</text>

  <rect x="102" y="582" width="188" height="32" rx="12" fill="#F1F5F9"/>
  <text x="122" y="603" fill="#64748B" font-size="15" font-family="Inter, Arial, sans-serif">Foreshadowing archive</text>

  <path d="M348 412C420 412 430 412 488 412" stroke="#475569" stroke-width="4" stroke-dasharray="10 10" marker-end="url(#arrow)"/>

  <rect x="510" y="234" width="220" height="356" rx="28" fill="#FFFFFF" stroke="#CBD5E1" filter="url(#shadow)"/>
  <text x="548" y="282" fill="#0F172A" font-size="26" font-weight="700" font-family="Inter, Arial, sans-serif">Retriever</text>
  <text x="548" y="314" fill="#64748B" font-size="16" font-family="Inter, Arial, sans-serif">Select only relevant context</text>

  <rect x="548" y="350" width="144" height="44" rx="14" fill="#FFEDD5"/>
  <text x="570" y="378" fill="#9A3412" font-size="18" font-weight="700" font-family="Inter, Arial, sans-serif">Match route</text>

  <rect x="548" y="410" width="144" height="44" rx="14" fill="#DBEAFE"/>
  <text x="569" y="438" fill="#1D4ED8" font-size="18" font-weight="700" font-family="Inter, Arial, sans-serif">Rank salience</text>

  <rect x="548" y="470" width="144" height="44" rx="14" fill="#EDE9FE"/>
  <text x="569" y="498" fill="#5B21B6" font-size="18" font-weight="700" font-family="Inter, Arial, sans-serif">Compress facts</text>

  <path d="M752 412C810 412 826 412 884 412" stroke="#475569" stroke-width="4" stroke-dasharray="10 10" marker-end="url(#arrow)"/>

  <rect x="900" y="176" width="230" height="470" rx="26" fill="#FFFFFF" stroke="#E2E8F0" filter="url(#shadow)"/>
  <text x="930" y="222" fill="#0F172A" font-size="26" font-weight="700" font-family="Inter, Arial, sans-serif">Context Window</text>
  <text x="930" y="252" fill="#64748B" font-size="16" font-family="Inter, Arial, sans-serif">Only what this step needs</text>

  <rect x="930" y="292" width="170" height="54" rx="18" fill="url(#cardA)"/>
  <text x="952" y="326" fill="#7C2D12" font-size="18" font-weight="700" font-family="Inter, Arial, sans-serif">Scene objective</text>

  <rect x="930" y="364" width="170" height="54" rx="18" fill="url(#cardB)"/>
  <text x="956" y="398" fill="#1E3A8A" font-size="18" font-weight="700" font-family="Inter, Arial, sans-serif">Recent turns</text>

  <rect x="930" y="436" width="170" height="54" rx="18" fill="url(#cardC)"/>
  <text x="943" y="470" fill="#3730A3" font-size="18" font-weight="700" font-family="Inter, Arial, sans-serif">Relevant memory</text>

  <rect x="930" y="520" width="170" height="72" rx="20" fill="#0F172A"/>
  <text x="964" y="562" fill="#F8FAFC" font-size="22" font-weight="700" font-family="Inter, Arial, sans-serif">Planner / Writer</text>

  <text x="90" y="686" fill="#64748B" font-size="18" font-family="Inter, Arial, sans-serif">Principle: smallest high-signal context set &gt; dumping full history into the prompt</text>
</svg>
