<svg width="1200" height="720" viewBox="0 0 1200 720" fill="none" xmlns="http://www.w3.org/2000/svg">
  <defs>
    <linearGradient id="bg4" x1="100" y1="60" x2="1100" y2="660" gradientUnits="userSpaceOnUse">
      <stop stop-color="#F8FAFC"/>
      <stop offset="1" stop-color="#EFF6FF"/>
    </linearGradient>
  </defs>
  <rect x="20" y="20" width="1160" height="680" rx="36" fill="url(#bg4)"/>
  <rect x="110" y="130" width="400" height="460" rx="30" fill="#0F172A"/>
  <text x="150" y="195" font-size="34" font-family="Consolas, Arial, sans-serif" font-weight="700" fill="#E2E8F0">SceneData</text>
  <text x="150" y="255" font-size="24" font-family="Consolas, Arial, sans-serif" fill="#7DD3FC">script</text>
  <text x="150" y="300" font-size="24" font-family="Consolas, Arial, sans-serif" fill="#86EFAC">stage_commands</text>
  <text x="150" y="345" font-size="24" font-family="Consolas, Arial, sans-serif" fill="#FDE68A">choices</text>
  <text x="150" y="390" font-size="24" font-family="Consolas, Arial, sans-serif" fill="#C4B5FD">background</text>
  <text x="150" y="435" font-size="24" font-family="Consolas, Arial, sans-serif" fill="#F9A8D4">game_state_update</text>
  <text x="150" y="480" font-size="24" font-family="Consolas, Arial, sans-serif" fill="#CBD5E1">continuity_notes</text>
  <text x="150" y="525" font-size="24" font-family="Consolas, Arial, sans-serif" fill="#CBD5E1">open_threads</text>
  <rect x="660" y="170" width="340" height="100" rx="24" fill="#E0F2FE" stroke="#7DD3FC" stroke-width="3"/>
  <rect x="660" y="310" width="340" height="100" rx="24" fill="#DCFCE7" stroke="#86EFAC" stroke-width="3"/>
  <rect x="660" y="450" width="340" height="100" rx="24" fill="#FEF3C7" stroke="#FCD34D" stroke-width="3"/>
  <text x="830" y="228" text-anchor="middle" font-size="30" font-family="Arial, sans-serif" font-weight="700" fill="#0F172A">Parser-safe</text>
  <text x="830" y="368" text-anchor="middle" font-size="30" font-family="Arial, sans-serif" font-weight="700" fill="#0F172A">Render-ready</text>
  <text x="830" y="508" text-anchor="middle" font-size="30" font-family="Arial, sans-serif" font-weight="700" fill="#0F172A">Next-turn ready</text>
  <path d="M510 240H630" stroke="#38BDF8" stroke-width="10" stroke-linecap="round"/>
  <path d="M510 360H630" stroke="#22C55E" stroke-width="10" stroke-linecap="round"/>
  <path d="M510 500H630" stroke="#F59E0B" stroke-width="10" stroke-linecap="round"/>
</svg>
