<svg width="1200" height="720" viewBox="0 0 1200 720" fill="none" xmlns="http://www.w3.org/2000/svg">
  <defs>
    <linearGradient id="bg3" x1="60" y1="50" x2="1140" y2="670" gradientUnits="userSpaceOnUse">
      <stop stop-color="#F8FBFF"/>
      <stop offset="1" stop-color="#F8FAFC"/>
    </linearGradient>
  </defs>
  <rect x="20" y="20" width="1160" height="680" rx="36" fill="url(#bg3)"/>
  <rect x="370" y="170" width="460" height="380" rx="34" fill="#ECFCCB" stroke="#84CC16" stroke-width="4"/>
  <text x="600" y="240" text-anchor="middle" font-size="42" font-family="Arial, sans-serif" font-weight="700" fill="#1E293B">Shared State</text>
  <text x="600" y="300" text-anchor="middle" font-size="26" font-family="Arial, sans-serif" fill="#334155">profiles</text>
  <text x="600" y="340" text-anchor="middle" font-size="26" font-family="Arial, sans-serif" fill="#334155">route + affection</text>
  <text x="600" y="380" text-anchor="middle" font-size="26" font-family="Arial, sans-serif" fill="#334155">history summary</text>
  <text x="600" y="420" text-anchor="middle" font-size="26" font-family="Arial, sans-serif" fill="#334155">continuity notes</text>
  <text x="600" y="460" text-anchor="middle" font-size="26" font-family="Arial, sans-serif" fill="#334155">open threads</text>
  <rect x="92" y="150" width="200" height="108" rx="24" fill="#E0F2FE" stroke="#7DD3FC" stroke-width="3"/>
  <rect x="92" y="306" width="200" height="108" rx="24" fill="#DCFCE7" stroke="#86EFAC" stroke-width="3"/>
  <rect x="92" y="462" width="200" height="108" rx="24" fill="#FEF3C7" stroke="#FCD34D" stroke-width="3"/>
  <rect x="908" y="228" width="200" height="108" rx="24" fill="#F3E8FF" stroke="#D8B4FE" stroke-width="3"/>
  <rect x="908" y="384" width="200" height="108" rx="24" fill="#FCE7F3" stroke="#F9A8D4" stroke-width="3"/>
  <text x="192" y="214" text-anchor="middle" font-size="28" font-family="Arial, sans-serif" font-weight="700" fill="#0F172A">Planner</text>
  <text x="192" y="370" text-anchor="middle" font-size="28" font-family="Arial, sans-serif" font-weight="700" fill="#0F172A">Writer</text>
  <text x="192" y="526" text-anchor="middle" font-size="28" font-family="Arial, sans-serif" font-weight="700" fill="#0F172A">Critic</text>
  <text x="1008" y="292" text-anchor="middle" font-size="28" font-family="Arial, sans-serif" font-weight="700" fill="#0F172A">Renderer</text>
  <text x="1008" y="448" text-anchor="middle" font-size="28" font-family="Arial, sans-serif" font-weight="700" fill="#0F172A">Next Turn</text>
  <path d="M292 204H350" stroke="#38BDF8" stroke-width="10" stroke-linecap="round"/>
  <path d="M292 360H350" stroke="#22C55E" stroke-width="10" stroke-linecap="round"/>
  <path d="M292 516H350" stroke="#F59E0B" stroke-width="10" stroke-linecap="round"/>
  <path d="M850 282H908" stroke="#A855F7" stroke-width="10" stroke-linecap="round"/>
  <path d="M850 438H908" stroke="#EC4899" stroke-width="10" stroke-linecap="round"/>
</svg>
